<svg xmlns="http://www.w3.org/2000/svg" width="1200" height="630" viewBox="0 0 1200 630">
  <!-- Background -->
  <rect width="1200" height="630" fill="#f0f4f8"/>

  <!-- Browser chrome -->
  <rect width="1200" height="630" rx="0" fill="#f0f4f8"/>

  <!-- Site header bar -->
  <rect x="0" y="0" width="1200" height="72" fill="#1a6fc4"/>
  <text x="36" y="46" font-family="sans-serif" font-size="28" font-weight="bold" fill="white">🏛️ 복지모아</text>
  <rect x="700" y="18" width="260" height="36" rx="18" fill="rgba(255,255,255,0.2)"/>
  <text x="830" y="42" font-family="sans-serif" font-size="16" text-anchor="middle" fill="rgba(255,255,255,0.85)">🔍  복지 검색...</text>
  <rect x="980" y="22" width="100" height="28" rx="14" fill="rgba(255,255,255,0.15)"/>
  <text x="1030" y="41" font-family="sans-serif" font-size="14" text-anchor="middle" fill="white">복지 찾기</text>

  <!-- Hero section -->
  <rect x="0" y="72" width="1200" height="100" fill="#1557a0"/>
  <text x="600" y="125" font-family="sans-serif" font-size="26" font-weight="bold" text-anchor="middle" fill="white">2026 정부 지원금 · 복지혜택 정보 총정리</text>
  <text x="600" y="158" font-family="sans-serif" font-size="16" text-anchor="middle" fill="rgba(255,255,255,0.75)">청년 · 어르신 · 저소득 · 장애인 · 육아 · 주거 — 40개 혜택 한눈에</text>

  <!-- Post cards row 1 -->
  <!-- Card 1 -->
  <rect x="36" y="196" width="254" height="130" rx="12" fill="white" filter="url(#shadow)"/>
  <rect x="36" y="196" width="254" height="6" rx="3" fill="#1a6fc4"/>
  <rect x="52" y="220" width="36" height="36" rx="18" fill="#e8f0fc"/>
  <text x="70" y="244" font-family="sans-serif" font-size="20" text-anchor="middle">💰</text>
  <text x="104" y="234" font-family="sans-serif" font-size="14" font-weight="bold" fill="#1a1a2e">청년내일저축계좌</text>
  <text x="104" y="253" font-family="sans-serif" font-size="12" fill="#666">월 10만원 저축 → 3년 후 720만원+</text>
  <rect x="52" y="290" width="60" height="22" rx="11" fill="#e8f0fc"/>
  <text x="82" y="305" font-family="sans-serif" font-size="11" text-anchor="middle" fill="#1a6fc4">청년</text>
  <rect x="120" y="290" width="60" height="22" rx="11" fill="#fef3e2"/>
  <text x="150" y="305" font-family="sans-serif" font-size="11" text-anchor="middle" fill="#e07c00">저소득</text>

  <!-- Card 2 -->
  <rect x="306" y="196" width="254" height="130" rx="12" fill="white"/>
  <rect x="306" y="196" width="254" height="6" rx="3" fill="#1a6fc4"/>
  <rect x="322" y="220" width="36" height="36" rx="18" fill="#e8f0fc"/>
  <text x="340" y="244" font-family="sans-serif" font-size="20" text-anchor="middle">🏠</text>
  <text x="374" y="234" font-family="sans-serif" font-size="14" font-weight="bold" fill="#1a1a2e">청년 월세 지원금</text>
  <text x="374" y="253" font-family="sans-serif" font-size="12" fill="#666">월 최대 20만원, 최장 24개월</text>
  <rect x="322" y="290" width="60" height="22" rx="11" fill="#e8f0fc"/>
  <text x="352" y="305" font-family="sans-serif" font-size="11" text-anchor="middle" fill="#1a6fc4">청년</text>
  <rect x="390" y="290" width="60" height="22" rx="11" fill="#e8f5ee"/>
  <text x="420" y="305" font-family="sans-serif" font-size="11" text-anchor="middle" fill="#1a7a45">주거</text>

  <!-- Card 3 -->
  <rect x="576" y="196" width="254" height="130" rx="12" fill="white"/>
  <rect x="576" y="196" width="254" height="6" rx="3" fill="#1a6fc4"/>
  <rect x="592" y="220" width="36" height="36" rx="18" fill="#fce8e8"/>
  <text x="610" y="244" font-family="sans-serif" font-size="20" text-anchor="middle">👴</text>
  <text x="644" y="234" font-family="sans-serif" font-size="14" font-weight="bold" fill="#1a1a2e">기초연금</text>
  <text x="644" y="253" font-family="sans-serif" font-size="12" fill="#666">65세 이상 최대 월 342,510원</text>
  <rect x="592" y="290" width="60" height="22" rx="11" fill="#fce8e8"/>
  <text x="622" y="305" font-family="sans-serif" font-size="11" text-anchor="middle" fill="#c0392b">어르신</text>
  <rect x="660" y="290" width="60" height="22" rx="11" fill="#fef3e2"/>
  <text x="690" y="305" font-family="sans-serif" font-size="11" text-anchor="middle" fill="#e07c00">저소득</text>

  <!-- Card 4 -->
  <rect x="846" y="196" width="254" height="130" rx="12" fill="white"/>
  <rect x="846" y="196" width="254" height="6" rx="3" fill="#1a6fc4"/>
  <rect x="862" y="220" width="36" height="36" rx="18" fill="#e8f5ee"/>
  <text x="880" y="244" font-family="sans-serif" font-size="20" text-anchor="middle">🍼</text>
  <text x="914" y="234" font-family="sans-serif" font-size="14" font-weight="bold" fill="#1a1a2e">부모급여</text>
  <text x="914" y="253" font-family="sans-serif" font-size="12" fill="#666">0세 월 100만원 / 1세 월 50만원</text>
  <rect x="862" y="290" width="60" height="22" rx="11" fill="#e8f5ee"/>
  <text x="892" y="305" font-family="sans-serif" font-size="11" text-anchor="middle" fill="#1a7a45">육아</text>
  <rect x="930" y="290" width="60" height="22" rx="11" fill="#e8f0fc"/>
  <text x="960" y="305" font-family="sans-serif" font-size="11" text-anchor="middle" fill="#1a6fc4">전국민</text>

  <!-- Post cards row 2 -->
  <!-- Card 5 -->
  <rect x="36" y="346" width="254" height="130" rx="12" fill="white"/>
  <rect x="36" y="346" width="254" height="6" rx="3" fill="#1a6fc4"/>
  <rect x="52" y="370" width="36" height="36" rx="18" fill="#f3e8fc"/>
  <text x="70" y="394" font-family="sans-serif" font-size="20" text-anchor="middle">🎓</text>
  <text x="104" y="384" font-family="sans-serif" font-size="14" font-weight="bold" fill="#1a1a2e">국가장학금</text>
  <text x="104" y="403" font-family="sans-serif" font-size="12" fill="#666">소득 8구간 이하 등록금 지원</text>
  <rect x="52" y="440" width="60" height="22" rx="11" fill="#e8f0fc"/>
  <text x="82" y="455" font-family="sans-serif" font-size="11" text-anchor="middle" fill="#1a6fc4">청년</text>

  <!-- Card 6 -->
  <rect x="306" y="346" width="254" height="130" rx="12" fill="white"/>
  <rect x="306" y="346" width="254" height="6" rx="3" fill="#1a6fc4"/>
  <rect x="322" y="370" width="36" height="36" rx="18" fill="#fef3e2"/>
  <text x="340" y="394" font-family="sans-serif" font-size="20" text-anchor="middle">💊</text>
  <text x="374" y="384" font-family="sans-serif" font-size="14" font-weight="bold" fill="#1a1a2e">의료급여</text>
  <text x="374" y="403" font-family="sans-serif" font-size="12" fill="#666">병원비 본인부담 최소화 지원</text>
  <rect x="322" y="440" width="60" height="22" rx="11" fill="#fef3e2"/>
  <text x="352" y="455" font-family="sans-serif" font-size="11" text-anchor="middle" fill="#e07c00">저소득</text>

  <!-- Card 7 -->
  <rect x="576" y="346" width="254" height="130" rx="12" fill="white"/>
  <rect x="576" y="346" width="254" height="6" rx="3" fill="#1a6fc4"/>
  <rect x="592" y="370" width="36" height="36" rx="18" fill="#e8f0fc"/>
  <text x="610" y="394" font-family="sans-serif" font-size="20" text-anchor="middle">🚌</text>
  <text x="644" y="384" font-family="sans-serif" font-size="14" font-weight="bold" fill="#1a1a2e">K-패스</text>
  <text x="644" y="403" font-family="sans-serif" font-size="12" fill="#666">대중교통비 최대 53% 환급</text>
  <rect x="592" y="440" width="60" height="22" rx="11" fill="#e8f0fc"/>
  <text x="622" y="455" font-family="sans-serif" font-size="11" text-anchor="middle" fill="#1a6fc4">청년</text>

  <!-- Card 8 - partial, suggesting more -->
  <rect x="846" y="346" width="254" height="130" rx="12" fill="white"/>
  <rect x="846" y="346" width="254" height="6" rx="3" fill="#1a6fc4"/>
  <rect x="862" y="370" width="36" height="36" rx="18" fill="#e8f5ee"/>
  <text x="880" y="394" font-family="sans-serif" font-size="20" text-anchor="middle">🏘️</text>
  <text x="914" y="384" font-family="sans-serif" font-size="14" font-weight="bold" fill="#1a1a2e">주거급여</text>
  <text x="914" y="403" font-family="sans-serif" font-size="12" fill="#666">임차료·수선비 매월 지원</text>
  <rect x="862" y="440" width="60" height="22" rx="11" fill="#e8f5ee"/>
  <text x="892" y="455" font-family="sans-serif" font-size="11" text-anchor="middle" fill="#1a7a45">주거</text>

  <!-- Footer bar -->
  <rect x="0" y="496" width="1200" height="134" fill="#1a1a2e"/>
  <text x="600" y="548" font-family="sans-serif" font-size="32" font-weight="bold" text-anchor="middle" fill="white">총 40개 복지혜택 — 지금 바로 확인하세요</text>
  <text x="600" y="590" font-family="sans-serif" font-size="18" text-anchor="middle" fill="rgba(255,255,255,0.6)">welfare.luckygrampus.com</text>

  <!-- Drop shadow filter -->
  <defs>
    <filter id="shadow" x="-5%" y="-5%" width="110%" height="120%">
      <feDropShadow dx="0" dy="2" stdDeviation="4" flood-color="rgba(0,0,0,0.10)"/>
    </filter>
  </defs>
</svg>
